HIERARCHY
ROOT Hips
{
	OFFSET 0.000000 97.167313 0.000000
	CHANNELS 6 Xposition Yposition Zposition Xrotation Yrotation Zrotation
	JOINT Spine
	{
		OFFSET 0.000000 13.784798 0.064400
		CHANNELS 3 Xrotation Yrotation Zrotation
		JOINT Spine1
		{
			OFFSET 0.000000 12.037903 0.404700
			CHANNELS 3 Xrotation Yrotation Zrotation
			JOINT Spine2
			{
				OFFSET 0.000000 17.795601 0.420200
				CHANNELS 3 Xrotation Yrotation Zrotation
				JOINT Neck
				{
					OFFSET 0.000000 39.131302 11.954600
					CHANNELS 3 Xrotation Yrotation Zrotation
					JOINT Head
					{
						OFFSET 0.000000 14.456192 15.627699
						CHANNELS 3 Xrotation Yrotation Zrotation
						JOINT HeadTop_End
						{
							OFFSET 0.000000 15.703506 7.603401
							CHANNELS 3 Xrotation Yrotation Zrotation
							End Site
							{
								OFFSET 0.000000 17.447403 0.000000
							}
						}
					}
				}
				JOINT LeftShoulder
				{
					OFFSET 17.399500 24.608795 1.168800
					CHANNELS 3 Xrotation Yrotation Zrotation
					JOINT LeftArm
					{
						OFFSET 18.980635 5.765305 1.818600
						CHANNELS 3 Xrotation Yrotation Zrotation
						JOINT LeftForeArm
						{
							OFFSET 49.290169 0.000000 0.000000
							CHANNELS 3 Xrotation Yrotation Zrotation
							JOINT LeftHand
							{
								OFFSET 31.562012 0.000000 0.000000
								CHANNELS 3 Xrotation Yrotation Zrotation
								JOINT LeftHandThumb1
								{
									OFFSET 6.133995 -4.388519 7.076070
									CHANNELS 3 Xrotation Yrotation Zrotation
									JOINT LeftHandThumb2
									{
										OFFSET 6.037666 -3.485840 3.485847
										CHANNELS 3 Xrotation Yrotation Zrotation
										JOINT LeftHandThumb3
										{
											OFFSET 6.496506 -3.750763 3.750761
											CHANNELS 3 Xrotation Yrotation Zrotation
											JOINT LeftHandThumb4
											{
												OFFSET 5.616882 -3.242905 3.242910
												CHANNELS 3 Xrotation Yrotation Zrotation
												End Site
												{
													OFFSET -1.254608 7.132141 0.375429
												}
											}
										}
									}
								}
								JOINT LeftHandPinky1
								{
									OFFSET 18.920792 -0.453171 -11.426712
									CHANNELS 3 Xrotation Yrotation Zrotation
									JOINT LeftHandPinky2
									{
										OFFSET 4.919586 0.000000 0.000000
										CHANNELS 3 Xrotation Yrotation Zrotation
										JOINT LeftHandPinky3
										{
											OFFSET 5.233047 0.000000 0.000000
											CHANNELS 3 Xrotation Yrotation Zrotation
											JOINT LeftHandPinky4
											{
												OFFSET 5.571716 0.000000 0.000000
												CHANNELS 3 Xrotation Yrotation Zrotation
												End Site
												{
													OFFSET -3.459808 4.342407 -0.466164
												}
											}
										}
									}
								}
								JOINT LeftHandRing1
								{
									OFFSET 22.726120 -0.094986 -6.500475
									CHANNELS 3 Xrotation Yrotation Zrotation
									JOINT LeftHandRing2
									{
										OFFSET 6.408615 0.000000 0.000000
										CHANNELS 3 Xrotation Yrotation Zrotation
										JOINT LeftHandRing3
										{
											OFFSET 6.150223 0.000000 0.000000
											CHANNELS 3 Xrotation Yrotation Zrotation
											JOINT LeftHandRing4
											{
												OFFSET 6.145386 0.000000 0.000000
												CHANNELS 3 Xrotation Yrotation Zrotation
												End Site
												{
													OFFSET -3.671402 4.923981 -0.202372
												}
											}
										}
									}
								}
								JOINT LeftHandMiddle1
								{
									OFFSET 23.373947 0.000000 0.000001
									CHANNELS 3 Xrotation Yrotation Zrotation
									JOINT LeftHandMiddle2
									{
										OFFSET 6.996567 0.000000 0.000000
										CHANNELS 3 Xrotation Yrotation Zrotation
										JOINT LeftHandMiddle3
										{
											OFFSET 7.015945 0.000000 0.000000
											CHANNELS 3 Xrotation Yrotation Zrotation
											JOINT LeftHandMiddle4
											{
												OFFSET 7.721573 0.000000 0.000000
												CHANNELS 3 Xrotation Yrotation Zrotation
												End Site
												{
													OFFSET -4.651108 6.158463 0.251582
												}
											}
										}
									}
								}
								JOINT LeftHandIndex1
								{
									OFFSET 21.310577 -0.490082 6.209344
									CHANNELS 3 Xrotation Yrotation Zrotation
									JOINT LeftHandIndex2
									{
										OFFSET 7.536453 0.000000 0.000000
										CHANNELS 3 Xrotation Yrotation Zrotation
										JOINT LeftHandIndex3
										{
											OFFSET 7.512344 0.000000 0.000000
											CHANNELS 3 Xrotation Yrotation Zrotation
											JOINT LeftHandIndex4
											{
												OFFSET 10.212402 0.000000 0.000001
												CHANNELS 3 Xrotation Yrotation Zrotation
												End Site
												{
													OFFSET -5.180801 8.690506 1.388433
												}
											}
										}
									}
								}
							}
						}
					}
				}
				JOINT RightShoulder
				{
					OFFSET -17.399500 24.608795 1.168800
					CHANNELS 3 Xrotation Yrotation Zrotation
					JOINT RightArm
					{
						OFFSET -18.980635 5.765305 1.818600
						CHANNELS 3 Xrotation Yrotation Zrotation
						JOINT RightForeArm
						{
							OFFSET -49.290169 0.000000 0.000000
							CHANNELS 3 Xrotation Yrotation Zrotation
							JOINT RightHand
							{
								OFFSET -31.562012 0.000000 0.000000
								CHANNELS 3 Xrotation Yrotation Zrotation
								JOINT RightHandThumb1
								{
									OFFSET -6.133995 -4.388519 7.076070
									CHANNELS 3 Xrotation Yrotation Zrotation
									JOINT RightHandThumb2
									{
										OFFSET -6.037666 -3.485840 3.485847
										CHANNELS 3 Xrotation Yrotation Zrotation
										JOINT RightHandThumb3
										{
											OFFSET -6.496506 -3.750763 3.750761
											CHANNELS 3 Xrotation Yrotation Zrotation
											JOINT RightHandThumb4
											{
												OFFSET -5.616882 -3.242905 3.242910
												CHANNELS 3 Xrotation Yrotation Zrotation
												End Site
												{
													OFFSET 1.254608 7.132141 0.375429
												}
											}
										}
									}
								}
								JOINT RightHandIndex1
								{
									OFFSET -21.310577 -0.490082 6.209344
									CHANNELS 3 Xrotation Yrotation Zrotation
									JOINT RightHandIndex2
									{
										OFFSET -7.536453 0.000000 0.000000
										CHANNELS 3 Xrotation Yrotation Zrotation
										JOINT RightHandIndex3
										{
											OFFSET -7.512344 0.000000 0.000000
											CHANNELS 3 Xrotation Yrotation Zrotation
											JOINT RightHandIndex4
											{
												OFFSET -10.212402 0.000000 0.000001
												CHANNELS 3 Xrotation Yrotation Zrotation
												End Site
												{
													OFFSET 5.180801 8.690506 1.388433
												}
											}
										}
									}
								}
								JOINT RightHandMiddle1
								{
									OFFSET -23.373947 0.000000 0.000001
									CHANNELS 3 Xrotation Yrotation Zrotation
									JOINT RightHandMiddle2
									{
										OFFSET -6.996567 0.000000 0.000000
										CHANNELS 3 Xrotation Yrotation Zrotation
										JOINT RightHandMiddle3
										{
											OFFSET -7.015945 0.000000 0.000000
											CHANNELS 3 Xrotation Yrotation Zrotation
											JOINT RightHandMiddle4
											{
												OFFSET -7.721573 0.000000 0.000000
												CHANNELS 3 Xrotation Yrotation Zrotation
												End Site
												{
													OFFSET 4.651108 6.158463 0.251582
												}
											}
										}
									}
								}
								JOINT RightHandRing1
								{
									OFFSET -22.726120 -0.094986 -6.500475
									CHANNELS 3 Xrotation Yrotation Zrotation
									JOINT RightHandRing2
									{
										OFFSET -6.408615 0.000000 0.000000
										CHANNELS 3 Xrotation Yrotation Zrotation
										JOINT RightHandRing3
										{
											OFFSET -6.150223 0.000000 0.000000
											CHANNELS 3 Xrotation Yrotation Zrotation
											JOINT RightHandRing4
											{
												OFFSET -6.145386 0.000000 0.000000
												CHANNELS 3 Xrotation Yrotation Zrotation
												End Site
												{
													OFFSET 3.671402 4.923981 -0.202372
												}
											}
										}
									}
								}
								JOINT RightHandPinky1
								{
									OFFSET -18.920792 -0.453171 -11.426712
									CHANNELS 3 Xrotation Yrotation Zrotation
									JOINT RightHandPinky2
									{
										OFFSET -4.919586 0.000000 0.000000
										CHANNELS 3 Xrotation Yrotation Zrotation
										JOINT RightHandPinky3
										{
											OFFSET -5.233047 0.000000 0.000000
											CHANNELS 3 Xrotation Yrotation Zrotation
											JOINT RightHandPinky4
											{
												OFFSET -5.571716 0.000000 0.000000
												CHANNELS 3 Xrotation Yrotation Zrotation
												End Site
												{
													OFFSET 3.459808 4.342407 -0.466164
												}
											}
										}
									}
								}
							}
						}
					}
				}
			}
		}
	}
	JOINT LeftUpLeg
	{
		OFFSET 19.899099 -7.885101 -3.429500
		CHANNELS 3 Xrotation Yrotation Zrotation
		JOINT LeftLeg
		{
			OFFSET 1.745560 -36.997807 10.304700
			CHANNELS 3 Xrotation Yrotation Zrotation
			JOINT LeftFoot
			{
				OFFSET -1.745558 -29.803308 -13.615400
				CHANNELS 3 Xrotation Yrotation Zrotation
				JOINT LeftToeBase
				{
					OFFSET 1.181900 -18.539904 15.226099
					CHANNELS 3 Xrotation Yrotation Zrotation
					JOINT LeftToe_End
					{
						OFFSET -0.863701 1.402801 16.534700
						CHANNELS 3 Xrotation Yrotation Zrotation
						End Site
						{
							OFFSET 0.000000 16.616566 0.000000
						}
					}
				}
			}
		}
	}
	JOINT RightUpLeg
	{
		OFFSET -19.899099 -7.885101 -3.429500
		CHANNELS 3 Xrotation Yrotation Zrotation
		JOINT RightLeg
		{
			OFFSET -1.745560 -36.997807 10.304700
			CHANNELS 3 Xrotation Yrotation Zrotation
			JOINT RightFoot
			{
				OFFSET 1.745558 -29.803308 -13.615400
				CHANNELS 3 Xrotation Yrotation Zrotation
				JOINT RightToeBase
				{
					OFFSET -1.181900 -18.539904 15.226099
					CHANNELS 3 Xrotation Yrotation Zrotation
					JOINT RightToe_End
					{
						OFFSET 0.863701 1.402801 16.534700
						CHANNELS 3 Xrotation Yrotation Zrotation
						End Site
						{
							OFFSET 0.000000 16.616566 0.000000
						}
					}
				}
			}
		}
	}
}
MOTION
Frames: 5
Frame Time: 0.033333
-1.213428 92.557602 1.307925 2.912696 -28.995581 1.056057 7.836774 -0.339428 -2.549839 1.099249 -0.880569 2.383464 1.108890 -0.590437 2.446368 -3.842075 18.019079 -6.496390 -6.332526 13.021591 0.301497 -0.000000 -0.000000 -0.000000 -0.057416 -8.759426 -0.061010 -55.249147 0.330451 -41.450263 11.586842 -65.830559 13.008090 -50.191256 12.353387 4.612543 17.551628 -5.699215 -12.932317 10.850498 26.127710 8.644778 20.926907 51.115899 0.218819 -0.000001 0.000005 -0.000002 10.030090 13.637018 -84.750244 0.877090 0.062349 -64.595503 1.141311 1.253131 -55.016364 0.000000 0.000002 -0.000002 8.574348 2.179139 -75.149006 -0.207654 1.009270 -57.855056 0.443132 1.742152 -53.581243 -0.000000 0.000001 -0.000002 7.504738 1.174493 -63.778510 1.807804 1.475672 -64.567964 0.130401 -0.912254 -43.272534 -0.000001 -0.000001 0.000004 13.980897 1.201527 -55.004384 0.370831 1.161727 -65.441893 1.983955 2.147992 -57.665115 -0.000001 0.000003 0.000001 4.849147 7.760103 5.560451 -0.933333 -2.176986 61.845608 11.299269 18.943842 -3.987585 -0.459201 6.619978 5.830166 15.788525 -2.734300 -17.210632 -2.197750 -31.113670 7.356895 -6.562087 -4.141371 2.412247 0.000001 0.000004 0.000003 2.369855 -3.658955 8.487156 -2.153352 -2.467729 18.673379 -1.910819 -4.817369 14.172946 -0.000001 -0.000002 0.000001 -1.976350 -5.707896 13.662348 0.281022 -5.109914 26.987867 -0.658730 -1.222359 16.125884 -0.000000 0.000000 -0.000004 -3.263103 -8.562159 11.769142 4.032324 -4.060452 33.262765 2.103970 -3.168790 15.593672 0.000000 -0.000000 -0.000002 -6.469676 -11.348216 23.261541 10.717363 -2.549782 34.821414 6.409707 -3.078198 15.310706 0.000000 -0.000001 0.000004 -13.626524 18.045816 14.223367 17.130490 10.536490 -2.452487 -4.777593 -1.695609 -8.488798 -0.145274 -0.000382 -0.310221 0.000000 -0.000000 0.000000 -9.540164 -1.103164 -9.788137 13.133147 9.996376 1.017374 -6.842355 -1.414362 7.751311 -1.288156 -0.032767 0.149733 -0.000000 -0.000001 0.000000 
-1.403595 92.231590 1.398254 3.129696 -29.035148 1.149675 7.769496 -0.220858 -3.014825 0.947511 -0.632597 3.128859 1.103881 -0.564644 1.982515 -4.128816 18.065975 -6.406951 -6.570324 12.586761 0.661360 0.000000 -0.000000 -0.000000 -0.076986 -8.514726 -0.179270 -54.371875 0.419276 -40.488163 7.092621 -66.987756 8.704671 -48.039251 11.699672 3.054629 17.551629 -5.699214 -12.932318 10.850497 26.127705 8.644779 20.926909 51.115903 0.218816 0.000001 0.000001 0.000001 10.030090 13.637019 -84.750244 0.877091 0.062346 -64.595503 1.141310 1.253131 -55.016358 0.000001 -0.000000 -0.000000 8.574351 2.179138 -75.149006 -0.207654 1.009272 -57.855056 0.443133 1.742150 -53.581239 -0.000001 -0.000001 0.000003 7.504740 1.174491 -63.778510 1.807805 1.475673 -64.567957 0.130400 -0.912257 -43.272534 -0.000000 -0.000001 0.000004 13.980896 1.201526 -55.004384 0.370831 1.161727 -65.441893 1.983958 2.147995 -57.665115 -0.000002 0.000003 0.000001 4.818867 8.100032 5.490792 -0.450672 -1.771793 62.169837 11.197488 19.298496 -2.703016 -0.341464 7.041085 6.450396 15.788547 -2.734299 -17.210644 -2.196139 -31.120541 7.354633 -6.562081 -4.141382 2.412290 -0.000001 0.000002 -0.000001 2.372895 -3.656549 8.383030 -2.153064 -2.465396 18.557311 -1.912822 -4.816744 14.113347 -0.000000 -0.000003 0.000001 -1.973688 -5.519505 13.700384 0.280847 -5.109888 26.981827 -0.659198 -1.221670 16.090732 -0.000001 -0.000000 -0.000004 -3.261197 -8.429313 11.818354 4.032212 -4.061551 33.307933 2.103976 -3.167757 15.537734 -0.000001 -0.000000 -0.000003 -6.459359 -11.243631 23.424016 10.718232 -2.551376 34.873665 6.408537 -3.084818 15.262392 0.000000 0.000001 0.000004 -14.151525 17.894271 14.586847 18.166903 10.720756 -2.470203 -5.408148 -1.844244 -8.874614 -0.145266 -0.000379 -0.310219 0.000000 0.000000 -0.000000 -10.090659 -1.040426 -9.675707 14.248613 10.239014 1.022938 -7.610944 -1.606980 7.481957 -1.288142 -0.032759 0.149726 -0.000000 0.000000 -0.000000 
-1.711963 91.555901 1.539511 3.496611 -28.772807 1.281711 7.644704 -0.099567 -3.683814 0.661986 -0.343710 3.996570 1.135666 -0.548192 1.454026 -4.975493 18.161552 -5.976713 -6.369670 12.071193 1.305362 -0.000000 0.000000 0.000000 -0.109868 -8.152983 -0.251103 -52.326472 1.639785 -37.952281 -1.161018 -69.923222 0.375687 -44.588428 11.229680 0.550722 17.551629 -5.699213 -12.932316 10.850505 26.127705 8.644780 20.926914 51.115906 0.218817 0.000002 0.000002 -0.000003 10.030092 13.637020 -84.750244 0.877090 0.062346 -64.595503 1.141310 1.253131 -55.016347 -0.000000 0.000000 -0.000002 8.574349 2.179140 -75.149006 -0.207654 1.009273 -57.855056 0.443134 1.742151 -53.581243 0.000001 -0.000001 0.000003 7.504740 1.174493 -63.778510 1.807805 1.475672 -64.567957 0.130400 -0.912256 -43.272530 0.000001 -0.000002 0.000004 13.980895 1.201527 -55.004388 0.370831 1.161727 -65.441893 1.983952 2.147997 -57.665115 -0.000001 0.000003 0.000001 4.763070 8.688875 5.497780 0.626705 -0.458879 62.607331 11.701746 19.857882 -1.556107 -0.083847 7.672060 7.718907 15.788532 -2.734293 -17.210647 -2.193120 -31.133256 7.350587 -6.562072 -4.141386 2.412294 0.000000 -0.000003 -0.000001 2.397921 -3.656218 8.125721 -2.167724 -2.457195 18.189289 -1.919236 -4.814966 13.968054 -0.000000 -0.000003 0.000003 -1.941086 -5.285404 13.650283 0.266180 -5.109089 26.766736 -0.663876 -1.217950 15.911634 0.000001 0.000000 -0.000006 -3.266228 -8.294688 11.780831 4.032819 -4.065677 33.206542 2.090100 -3.172126 15.279126 0.000001 -0.000000 -0.000003 -6.446908 -11.137732 23.658151 10.717522 -2.570512 34.771018 6.397565 -3.113733 15.004708 -0.000001 -0.000001 -0.000003 -15.390935 17.566425 15.284888 20.286770 10.911104 -2.485383 -6.574210 -2.316276 -9.528722 -0.145277 -0.000384 -0.310219 0.000000 0.000000 -0.000000 -11.029351 -0.940268 -9.503155 16.490015 10.514817 1.039764 -9.210292 -2.092497 6.994675 -1.288137 -0.032737 0.149727 -0.000000 -0.000003 -0.000000 
-2.112776 90.505623 1.796104 3.894652 -27.764389 1.495997 7.746842 0.047459 -4.674398 0.156016 0.075640 5.012903 1.103847 -0.459512 0.893819 -6.254450 18.092971 -5.258606 -6.287447 11.272895 2.363885 -0.000000 0.000000 0.000000 -0.268458 -6.670117 -1.196681 -49.913547 4.195131 -33.921363 -10.574232 -75.949245 -10.063911 -41.804040 11.747556 -2.728828 17.551628 -5.699212 -12.932318 10.850499 26.127705 8.644781 20.926911 51.115903 0.218818 0.000003 0.000003 0.000000 10.030088 13.637017 -84.750244 0.877090 0.062348 -64.595503 1.141310 1.253132 -55.016354 0.000000 -0.000002 0.000003 8.574348 2.179138 -75.149013 -0.207652 1.009273 -57.855056 0.443133 1.742154 -53.581243 -0.000001 0.000001 0.000003 7.504741 1.174490 -63.778503 1.807806 1.475675 -64.567957 0.130402 -0.912253 -43.272530 0.000000 -0.000002 0.000001 13.980897 1.201527 -55.004388 0.370833 1.161724 -65.441893 1.983955 2.147991 -57.665115 -0.000004 0.000006 0.000002 4.657132 9.673360 5.787093 2.688252 1.888743 62.822803 12.879683 20.692652 -0.737931 0.291984 8.035592 9.507480 15.788544 -2.734316 -17.210663 -2.189805 -31.147326 7.345997 -6.562071 -4.141382 2.412324 -0.000000 0.000001 0.000002 2.438534 -3.662620 7.762760 -2.190816 -2.436208 17.648107 -1.937036 -4.811333 13.763320 -0.000000 -0.000001 -0.000002 -1.878933 -5.019435 13.540112 0.234056 -5.108121 26.407786 -0.669051 -1.212363 15.633552 0.000001 0.000001 -0.000011 -3.283379 -8.158221 11.682800 4.020101 -4.079773 33.004242 2.068006 -3.186349 14.881102 -0.000000 -0.000000 -0.000003 -6.433004 -11.030633 23.942291 10.708941 -2.609494 34.564220 6.375632 -3.158449 14.602873 0.000001 -0.000000 0.000006 -17.395146 17.148211 15.818086 23.181066 9.271987 -2.557398 -8.038124 -1.740871 -9.639808 -0.145271 -0.000378 -0.310217 0.000000 -0.000000 0.000000 -11.999003 -0.776550 -9.541095 19.904124 10.206942 1.057178 -11.905902 -2.691133 6.513554 -1.289252 -0.032735 0.149199 -0.000000 -0.000001 0.000000 
-2.478417 89.539246 2.326444 4.017687 -24.449197 1.783431 7.673331 0.359583 -5.221570 -0.086579 0.715255 5.911368 1.433829 -0.210829 0.054396 -8.174415 16.978472 -4.527773 -5.959070 9.365212 3.471352 -0.000000 0.000000 -0.000000 -0.446713 -4.464238 -2.340985 -48.658910 8.668409 -30.209397 -38.436907 -83.780617 -39.323755 -38.142034 11.560147 -5.504253 17.551626 -5.699214 -12.932317 10.850497 26.127704 8.644780 20.926911 51.115906 0.218820 0.000001 -0.000002 -0.000003 10.030089 13.637022 -84.750244 0.877090 0.062344 -64.595503 1.141313 1.253131 -55.016358 0.000000 0.000002 -0.000002 8.574349 2.179139 -75.149013 -0.207654 1.009272 -57.855056 0.443132 1.742152 -53.581236 -0.000000 -0.000001 0.000003 7.504739 1.174493 -63.778503 1.807805 1.475674 -64.567964 0.130401 -0.912254 -43.272534 0.000002 -0.000001 0.000004 13.980896 1.201530 -55.004388 0.370826 1.161726 -65.441893 1.983952 2.148000 -57.665115 -0.000001 0.000003 0.000002 4.483856 11.223678 5.889606 5.610880 4.736741 63.352866 15.126364 20.946025 -0.705765 0.657879 8.693589 11.354791 15.788542 -2.734296 -17.210641 -2.186259 -31.162171 7.341256 -6.562087 -4.141395 2.412288 -0.000001 0.000000 -0.000000 2.484441 -3.670262 7.362459 -2.216318 -2.412829 17.046047 -1.956203 -4.805827 13.537736 0.000000 0.000001 -0.000003 -1.805795 -4.740167 13.409228 0.197526 -5.106920 25.999725 -0.672091 -1.206367 15.321122 0.000000 0.000002 -0.000008 -3.302895 -8.019170 11.565126 4.003262 -4.096191 32.768068 2.043144 -3.202156 14.434719 0.000002 -0.000004 -0.000004 -6.418472 -10.921711 24.245776 10.697699 -2.655040 34.322428 6.350549 -3.208539 14.151179 -0.000002 -0.000000 0.000006 -19.433871 15.970680 15.716446 25.471760 8.325896 -2.597620 -8.790064 -3.293054 -9.523344 -0.144239 -0.000380 -0.310221 -0.000000 -0.000000 -0.000000 -11.297210 -1.314995 -10.287829 23.039090 7.781614 1.062730 -15.544020 -3.131726 6.659919 -1.449982 -0.031791 0.094445 0.000000 -0.000000 0.000000 
